<mxfile host="Electron" agent="Mozilla/5.0 (Windows NT 10.0; Win64; x64) AppleWebKit/537.36 (KHTML, like Gecko) draw.io/24.7.17 Chrome/128.0.6613.36 Electron/32.0.1 Safari/537.36" version="24.7.17">
  <diagram name="Page-1" id="6gu5yLO9jjjUU8g3W4U9">
    <mxGraphModel dx="757" dy="681" grid="1" gridSize="10" guides="1" tooltips="1" connect="1" arrows="1" fold="1" page="1" pageScale="1" pageWidth="850" pageHeight="1100" math="0" shadow="0">
      <root>
        <mxCell id="0" />
        <mxCell id="1" parent="0" />
        <mxCell id="WcTV7WSFkbGg9f9j-Hoc-5" style="edgeStyle=orthogonalEdgeStyle;rounded=0;orthogonalLoop=1;jettySize=auto;html=1;entryX=0;entryY=0.5;entryDx=0;entryDy=0;" edge="1" parent="1" source="WcTV7WSFkbGg9f9j-Hoc-2" target="WcTV7WSFkbGg9f9j-Hoc-32">
          <mxGeometry relative="1" as="geometry">
            <mxPoint x="249.9999999999999" y="238.93103448275872" as="targetPoint" />
          </mxGeometry>
        </mxCell>
        <mxCell id="WcTV7WSFkbGg9f9j-Hoc-2" value="" style="shape=mxgraph.signs.transportation.car_3;html=1;pointerEvents=1;fillColor=#000000;strokeColor=none;verticalLabelPosition=bottom;verticalAlign=top;align=center;flipH=1;" vertex="1" parent="1">
          <mxGeometry x="110" y="220" width="99" height="38" as="geometry" />
        </mxCell>
        <mxCell id="WcTV7WSFkbGg9f9j-Hoc-7" style="edgeStyle=orthogonalEdgeStyle;rounded=0;orthogonalLoop=1;jettySize=auto;html=1;entryX=0;entryY=0.5;entryDx=0;entryDy=0;dashed=1;dashPattern=8 8;exitX=1;exitY=0.5;exitDx=0;exitDy=0;" edge="1" parent="1" source="WcTV7WSFkbGg9f9j-Hoc-32" target="WcTV7WSFkbGg9f9j-Hoc-6">
          <mxGeometry relative="1" as="geometry">
            <mxPoint x="300" y="238.93103448275872" as="sourcePoint" />
          </mxGeometry>
        </mxCell>
        <mxCell id="WcTV7WSFkbGg9f9j-Hoc-8" value="Bluetooth" style="edgeLabel;html=1;align=center;verticalAlign=middle;resizable=0;points=[];" vertex="1" connectable="0" parent="WcTV7WSFkbGg9f9j-Hoc-7">
          <mxGeometry x="0.0922" y="1" relative="1" as="geometry">
            <mxPoint x="-6" y="-8" as="offset" />
          </mxGeometry>
        </mxCell>
        <mxCell id="WcTV7WSFkbGg9f9j-Hoc-6" value="Raspberry Pi" style="rounded=1;whiteSpace=wrap;html=1;fillColor=#f8cecc;strokeColor=#b85450;" vertex="1" parent="1">
          <mxGeometry x="385" y="219" width="80" height="40" as="geometry" />
        </mxCell>
        <mxCell id="WcTV7WSFkbGg9f9j-Hoc-9" value="Telemetry&lt;br&gt;Server" style="ellipse;shape=cloud;whiteSpace=wrap;html=1;" vertex="1" parent="1">
          <mxGeometry x="480" y="129" width="120" height="80" as="geometry" />
        </mxCell>
        <mxCell id="WcTV7WSFkbGg9f9j-Hoc-27" value="" style="group" vertex="1" connectable="0" parent="1">
          <mxGeometry x="120" y="290" width="310" height="170" as="geometry" />
        </mxCell>
        <mxCell id="WcTV7WSFkbGg9f9j-Hoc-11" value="" style="rounded=1;whiteSpace=wrap;html=1;fillColor=#f8cecc;strokeColor=#b85450;verticalAlign=top;labelPosition=left;verticalLabelPosition=middle;align=right;" vertex="1" parent="WcTV7WSFkbGg9f9j-Hoc-27">
          <mxGeometry width="310" height="170" as="geometry" />
        </mxCell>
        <mxCell id="WcTV7WSFkbGg9f9j-Hoc-10" value="" style="sketch=0;pointerEvents=1;shadow=0;dashed=0;html=1;strokeColor=none;fillColor=#434445;aspect=fixed;labelPosition=center;verticalLabelPosition=bottom;verticalAlign=top;align=center;outlineConnect=0;shape=mxgraph.vvd.wi_fi;" vertex="1" parent="WcTV7WSFkbGg9f9j-Hoc-27">
          <mxGeometry x="265" y="2.5" width="35" height="35" as="geometry" />
        </mxCell>
        <mxCell id="WcTV7WSFkbGg9f9j-Hoc-24" value="" style="rounded=1;whiteSpace=wrap;html=1;fillColor=#ffe6cc;strokeColor=#d79b00;glass=0;" vertex="1" parent="WcTV7WSFkbGg9f9j-Hoc-27">
          <mxGeometry x="23" y="30" width="242" height="65" as="geometry" />
        </mxCell>
        <mxCell id="WcTV7WSFkbGg9f9j-Hoc-22" style="edgeStyle=orthogonalEdgeStyle;rounded=0;orthogonalLoop=1;jettySize=auto;html=1;entryX=0;entryY=0.5;entryDx=0;entryDy=0;" edge="1" parent="WcTV7WSFkbGg9f9j-Hoc-27" source="WcTV7WSFkbGg9f9j-Hoc-12" target="WcTV7WSFkbGg9f9j-Hoc-17">
          <mxGeometry relative="1" as="geometry" />
        </mxCell>
        <mxCell id="WcTV7WSFkbGg9f9j-Hoc-12" value="Periodic scan for telemetry server" style="rounded=1;whiteSpace=wrap;html=1;fillColor=#dae8fc;strokeColor=#6c8ebf;" vertex="1" parent="WcTV7WSFkbGg9f9j-Hoc-27">
          <mxGeometry x="35" y="37.5" width="100" height="50" as="geometry" />
        </mxCell>
        <mxCell id="WcTV7WSFkbGg9f9j-Hoc-26" value="" style="rounded=1;whiteSpace=wrap;html=1;fillColor=#ffe6cc;strokeColor=#d79b00;glass=0;" vertex="1" parent="WcTV7WSFkbGg9f9j-Hoc-27">
          <mxGeometry x="23" y="100" width="242" height="65" as="geometry" />
        </mxCell>
        <mxCell id="WcTV7WSFkbGg9f9j-Hoc-23" style="edgeStyle=orthogonalEdgeStyle;rounded=0;orthogonalLoop=1;jettySize=auto;html=1;entryX=0;entryY=0.5;entryDx=0;entryDy=0;" edge="1" parent="WcTV7WSFkbGg9f9j-Hoc-27" source="WcTV7WSFkbGg9f9j-Hoc-13" target="WcTV7WSFkbGg9f9j-Hoc-16">
          <mxGeometry relative="1" as="geometry" />
        </mxCell>
        <mxCell id="WcTV7WSFkbGg9f9j-Hoc-13" value="Read and parse OBD data" style="rounded=1;whiteSpace=wrap;html=1;fillColor=#dae8fc;strokeColor=#6c8ebf;" vertex="1" parent="WcTV7WSFkbGg9f9j-Hoc-27">
          <mxGeometry x="35" y="107.5" width="100" height="50" as="geometry" />
        </mxCell>
        <mxCell id="WcTV7WSFkbGg9f9j-Hoc-16" value="Write to local data base" style="rounded=1;whiteSpace=wrap;html=1;fillColor=#dae8fc;strokeColor=#6c8ebf;" vertex="1" parent="WcTV7WSFkbGg9f9j-Hoc-27">
          <mxGeometry x="155" y="107.5" width="100" height="50" as="geometry" />
        </mxCell>
        <mxCell id="WcTV7WSFkbGg9f9j-Hoc-17" value="Send local data to telemetry server" style="rounded=1;whiteSpace=wrap;html=1;fillColor=#dae8fc;strokeColor=#6c8ebf;" vertex="1" parent="WcTV7WSFkbGg9f9j-Hoc-27">
          <mxGeometry x="155" y="37.5" width="100" height="50" as="geometry" />
        </mxCell>
        <mxCell id="WcTV7WSFkbGg9f9j-Hoc-21" value="Raspberry Pi" style="text;html=1;align=center;verticalAlign=middle;whiteSpace=wrap;rounded=0;" vertex="1" parent="WcTV7WSFkbGg9f9j-Hoc-27">
          <mxGeometry x="9" width="80" height="30" as="geometry" />
        </mxCell>
        <mxCell id="WcTV7WSFkbGg9f9j-Hoc-28" value="" style="sketch=0;pointerEvents=1;shadow=0;dashed=0;html=1;strokeColor=none;fillColor=#434445;aspect=fixed;labelPosition=center;verticalLabelPosition=bottom;verticalAlign=top;align=center;outlineConnect=0;shape=mxgraph.vvd.wi_fi;" vertex="1" parent="1">
          <mxGeometry x="465" y="184" width="35" height="35" as="geometry" />
        </mxCell>
        <mxCell id="WcTV7WSFkbGg9f9j-Hoc-29" value="Background &lt;br&gt;Process" style="rounded=1;whiteSpace=wrap;html=1;fillColor=#ffe6cc;strokeColor=#d79b00;" vertex="1" parent="1">
          <mxGeometry x="465" y="310" width="70" height="40" as="geometry" />
        </mxCell>
        <mxCell id="WcTV7WSFkbGg9f9j-Hoc-31" value="Physical Hardware" style="rounded=1;whiteSpace=wrap;html=1;fillColor=#f8cecc;strokeColor=#b85450;" vertex="1" parent="1">
          <mxGeometry x="465" y="410" width="70" height="40" as="geometry" />
        </mxCell>
        <mxCell id="WcTV7WSFkbGg9f9j-Hoc-32" value="OBD Reader" style="rounded=1;whiteSpace=wrap;html=1;fillColor=#f8cecc;strokeColor=#b85450;" vertex="1" parent="1">
          <mxGeometry x="235" y="219" width="80" height="40" as="geometry" />
        </mxCell>
        <mxCell id="WcTV7WSFkbGg9f9j-Hoc-35" value="&lt;b&gt;Legend&lt;/b&gt;" style="rounded=1;whiteSpace=wrap;html=1;" vertex="1" parent="1">
          <mxGeometry x="465" y="280" width="70" height="20" as="geometry" />
        </mxCell>
        <mxCell id="WcTV7WSFkbGg9f9j-Hoc-36" value="Application" style="rounded=1;whiteSpace=wrap;html=1;fillColor=#dae8fc;strokeColor=#6c8ebf;" vertex="1" parent="1">
          <mxGeometry x="465" y="360" width="70" height="40" as="geometry" />
        </mxCell>
      </root>
    </mxGraphModel>
  </diagram>
</mxfile>
